<svg xmlns="http://www.w3.org/2000/svg" xmlns:xlink="http://www.w3.org/1999/xlink" width="50" zoomAndPan="magnify" viewBox="0 0 37.5 37.499999" height="50" preserveAspectRatio="xMidYMid meet" version="1.0"><defs><clipPath id="02004eef6e"><path d="M 0 0 L 37.007812 0 L 37.007812 37.007812 L 0 37.007812 Z M 0 0 " clip-rule="nonzero"/></clipPath><clipPath id="69d690e6c9"><path d="M 5.230469 6.464844 L 21.265625 6.464844 L 21.265625 24.296875 L 5.230469 24.296875 Z M 5.230469 6.464844 " clip-rule="nonzero"/></clipPath><clipPath id="6ea34ab6f2"><path d="M 20.382812 16.851562 L 7.769531 24.058594 C 7.246094 24.359375 6.597656 24.355469 6.074219 24.050781 C 5.550781 23.75 5.230469 23.1875 5.230469 22.582031 L 5.230469 8.214844 C 5.230469 7.609375 5.550781 7.050781 6.074219 6.746094 C 6.597656 6.441406 7.246094 6.441406 7.769531 6.742188 L 20.382812 13.945312 C 20.902344 14.246094 21.222656 14.800781 21.222656 15.398438 C 21.222656 16 20.902344 16.554688 20.382812 16.851562 Z M 20.382812 16.851562 " clip-rule="nonzero"/></clipPath><clipPath id="0b835c9fa7"><path d="M 0.230469 0.464844 L 16.265625 0.464844 L 16.265625 18.296875 L 0.230469 18.296875 Z M 0.230469 0.464844 " clip-rule="nonzero"/></clipPath><clipPath id="de3af1fed9"><path d="M 15.382812 10.851562 L 2.769531 18.058594 C 2.246094 18.359375 1.597656 18.355469 1.074219 18.050781 C 0.550781 17.75 0.230469 17.1875 0.230469 16.582031 L 0.230469 2.214844 C 0.230469 1.609375 0.550781 1.050781 1.074219 0.746094 C 1.597656 0.441406 2.246094 0.441406 2.769531 0.742188 L 15.382812 7.945312 C 15.902344 8.246094 16.222656 8.800781 16.222656 9.398438 C 16.222656 10 15.902344 10.554688 15.382812 10.851562 Z M 15.382812 10.851562 " clip-rule="nonzero"/></clipPath><clipPath id="743623fec1"><rect x="0" width="17" y="0" height="19"/></clipPath><clipPath id="afa038932c"><path d="M 15.734375 12.710938 L 31.769531 12.710938 L 31.769531 30.542969 L 15.734375 30.542969 Z M 15.734375 12.710938 " clip-rule="nonzero"/></clipPath><clipPath id="d49f15f06d"><path d="M 16.617188 20.15625 L 29.226562 12.949219 C 29.753906 12.648438 30.398438 12.652344 30.925781 12.953125 C 31.449219 13.257812 31.769531 13.816406 31.769531 14.425781 L 31.769531 28.789062 C 31.769531 29.394531 31.449219 29.957031 30.925781 30.257812 C 30.398438 30.5625 29.753906 30.566406 29.226562 30.265625 L 16.617188 23.058594 C 16.097656 22.761719 15.777344 22.207031 15.777344 21.605469 C 15.777344 21.007812 16.097656 20.453125 16.617188 20.15625 Z M 16.617188 20.15625 " clip-rule="nonzero"/></clipPath><clipPath id="fa7bc63ad7"><path d="M 0.734375 0.710938 L 16.769531 0.710938 L 16.769531 18.542969 L 0.734375 18.542969 Z M 0.734375 0.710938 " clip-rule="nonzero"/></clipPath><clipPath id="4573df5851"><path d="M 1.617188 8.15625 L 14.226562 0.949219 C 14.753906 0.648438 15.398438 0.652344 15.925781 0.953125 C 16.449219 1.257812 16.769531 1.816406 16.769531 2.425781 L 16.769531 16.789062 C 16.769531 17.394531 16.449219 17.957031 15.925781 18.257812 C 15.398438 18.5625 14.753906 18.566406 14.226562 18.265625 L 1.617188 11.058594 C 1.097656 10.761719 0.777344 10.207031 0.777344 9.605469 C 0.777344 9.007812 1.097656 8.453125 1.617188 8.15625 Z M 1.617188 8.15625 " clip-rule="nonzero"/></clipPath><clipPath id="27ae6eb07d"><rect x="0" width="17" y="0" height="19"/></clipPath></defs><g clip-path="url(#02004eef6e)"><path fill="#ffffff" d="M 0 0 L 37.007812 0 L 37.007812 37.007812 L 0 37.007812 Z M 0 0 " fill-opacity="1" fill-rule="nonzero"/><path fill="#ffffff" d="M 0 0 L 37.007812 0 L 37.007812 37.007812 L 0 37.007812 Z M 0 0 " fill-opacity="1" fill-rule="nonzero"/></g><g clip-path="url(#69d690e6c9)"><g clip-path="url(#6ea34ab6f2)"><g transform="matrix(1, 0, 0, 1, 5, 6)"><g clip-path="url(#743623fec1)"><g clip-path="url(#0b835c9fa7)"><g clip-path="url(#de3af1fed9)"><path fill="#1d9e75" d="M 17.921875 -0.710938 L 17.921875 19.539062 L 0.230469 19.539062 L 0.230469 -0.710938 Z M 17.921875 -0.710938 " fill-opacity="1" fill-rule="nonzero"/></g></g></g></g></g></g><g clip-path="url(#afa038932c)"><g clip-path="url(#d49f15f06d)"><g transform="matrix(1, 0, 0, 1, 15, 12)"><g clip-path="url(#27ae6eb07d)"><g clip-path="url(#fa7bc63ad7)"><g clip-path="url(#4573df5851)"><path fill="#1d9e75" d="M -0.921875 19.71875 L -0.921875 -0.535156 L 16.769531 -0.535156 L 16.769531 19.71875 Z M -0.921875 19.71875 " fill-opacity="1" fill-rule="nonzero"/></g></g></g></g></g></g></svg>