<svg xmlns="http://www.w3.org/2000/svg" xmlns:xlink="http://www.w3.org/1999/xlink" width="1264" zoomAndPan="magnify" viewBox="0 0 948 947.999989" height="1264" preserveAspectRatio="xMidYMid meet" version="1.0"><defs><g/><clipPath id="99d46c2815"><path d="M 0.792969 6.671875 L 106.789062 6.671875 L 106.789062 125.246094 L 0.792969 125.246094 Z M 0.792969 6.671875 " clip-rule="nonzero"/></clipPath><clipPath id="3cb0a72788"><path d="M 102.097656 73.902344 L 14.46875 123.976562 C 11.636719 125.59375 8.164062 125.582031 5.34375 123.945312 C 2.527344 122.3125 0.792969 119.300781 0.792969 116.039062 L 0.792969 16.136719 C 0.792969 12.875 2.527344 9.863281 5.34375 8.230469 C 8.164062 6.59375 11.636719 6.582031 14.46875 8.199219 L 102.097656 58.273438 C 104.902344 59.875 106.632812 62.859375 106.632812 66.085938 C 106.632812 69.316406 104.902344 72.300781 102.097656 73.902344 Z M 102.097656 73.902344 " clip-rule="nonzero"/></clipPath><clipPath id="fa37d45757"><path d="M 0.792969 0.671875 L 106.640625 0.671875 L 106.640625 119.246094 L 0.792969 119.246094 Z M 0.792969 0.671875 " clip-rule="nonzero"/></clipPath><clipPath id="681c303e68"><path d="M 102.097656 67.902344 L 14.46875 117.976562 C 11.636719 119.59375 8.164062 119.582031 5.34375 117.945312 C 2.527344 116.3125 0.792969 113.300781 0.792969 110.039062 L 0.792969 10.136719 C 0.792969 6.875 2.527344 3.863281 5.34375 2.230469 C 8.164062 0.59375 11.636719 0.582031 14.46875 2.199219 L 102.097656 52.273438 C 104.902344 53.875 106.632812 56.859375 106.632812 60.085938 C 106.632812 63.316406 104.902344 66.300781 102.097656 67.902344 Z M 102.097656 67.902344 " clip-rule="nonzero"/></clipPath><clipPath id="d2f78a338c"><rect x="0" width="107" y="0" height="120"/></clipPath><clipPath id="faa35c246c"><path d="M 67.273438 43.648438 L 173.273438 43.648438 L 173.273438 162 L 67.273438 162 Z M 67.273438 43.648438 " clip-rule="nonzero"/></clipPath><clipPath id="d94025bae5"><path d="M 71.96875 94.992188 L 159.597656 44.917969 C 162.425781 43.300781 165.902344 43.3125 168.71875 44.949219 C 171.539062 46.582031 173.273438 49.59375 173.273438 52.851562 L 173.273438 152.757812 C 173.273438 156.015625 171.539062 159.027344 168.71875 160.664062 C 165.902344 162.300781 162.425781 162.3125 159.597656 160.695312 L 71.96875 110.621094 C 69.164062 109.015625 67.433594 106.035156 67.433594 102.804688 C 67.433594 99.574219 69.164062 96.59375 71.96875 94.992188 Z M 71.96875 94.992188 " clip-rule="nonzero"/></clipPath><clipPath id="0e0b936c20"><path d="M 0.28125 0.648438 L 106.273438 0.648438 L 106.273438 119 L 0.28125 119 Z M 0.28125 0.648438 " clip-rule="nonzero"/></clipPath><clipPath id="dca9b61b04"><path d="M 4.96875 51.992188 L 92.597656 1.917969 C 95.425781 0.300781 98.902344 0.3125 101.71875 1.949219 C 104.539062 3.582031 106.273438 6.59375 106.273438 9.851562 L 106.273438 109.757812 C 106.273438 113.015625 104.539062 116.027344 101.71875 117.664062 C 98.902344 119.300781 95.425781 119.3125 92.597656 117.695312 L 4.96875 67.621094 C 2.164062 66.015625 0.433594 63.035156 0.433594 59.804688 C 0.433594 56.574219 2.164062 53.59375 4.96875 51.992188 Z M 4.96875 51.992188 " clip-rule="nonzero"/></clipPath><clipPath id="38f607a891"><rect x="0" width="107" y="0" height="119"/></clipPath><clipPath id="7bda5b4dcb"><rect x="0" width="174" y="0" height="169"/></clipPath><clipPath id="a8517e0f37"><rect x="0" width="640" y="0" height="146"/></clipPath></defs><g transform="matrix(1, 0, 0, 1, 94, 436)"><g clip-path="url(#7bda5b4dcb)"><g clip-path="url(#99d46c2815)"><g clip-path="url(#3cb0a72788)"><g transform="matrix(1, 0, 0, 1, -0.000000000000014211, 6)"><g clip-path="url(#d2f78a338c)"><g clip-path="url(#fa37d45757)"><g clip-path="url(#681c303e68)"><path fill="#ffffff" d="M 115.773438 -5.613281 L 115.773438 125.984375 L 0.792969 125.984375 L 0.792969 -5.613281 Z M 115.773438 -5.613281 " fill-opacity="1" fill-rule="nonzero"/></g></g></g></g></g></g><g clip-path="url(#faa35c246c)"><g clip-path="url(#d94025bae5)"><g transform="matrix(1, 0, 0, 1, 67, 43)"><g clip-path="url(#38f607a891)"><g clip-path="url(#0e0b936c20)"><g clip-path="url(#dca9b61b04)"><path fill="#ffffff" d="M -8.707031 125.507812 L -8.707031 -6.089844 L 106.273438 -6.089844 L 106.273438 125.507812 Z M -8.707031 125.507812 " fill-opacity="1" fill-rule="nonzero"/></g></g></g></g></g></g></g></g><g transform="matrix(1, 0, 0, 1, 306, 447)"><g clip-path="url(#a8517e0f37)"><g fill="#ffffff" fill-opacity="1"><g transform="translate(0.132323, 115.386089)"><g><path d="M 86.890625 0 L 86.78125 -54.703125 L 59.65625 -9.4375 L 52.828125 -9.4375 L 25.703125 -54 L 25.703125 0 L 11.078125 0 L 11.078125 -82.53125 L 23.703125 -82.53125 L 56.484375 -27.828125 L 88.671875 -82.53125 L 101.28125 -82.53125 L 101.40625 0 Z M 86.890625 0 "/></g></g></g><g fill="#ffffff" fill-opacity="1"><g transform="translate(143.629026, 115.386089)"><g><path d="M 49.640625 1.171875 C 41.222656 1.171875 33.632812 -0.648438 26.875 -4.296875 C 20.125 -7.953125 14.820312 -13.019531 10.96875 -19.5 C 7.113281 -25.988281 5.1875 -33.242188 5.1875 -41.265625 C 5.1875 -49.285156 7.113281 -56.535156 10.96875 -63.015625 C 14.820312 -69.503906 20.125 -74.578125 26.875 -78.234375 C 33.632812 -81.890625 41.222656 -83.71875 49.640625 -83.71875 C 58.046875 -83.71875 65.628906 -81.890625 72.390625 -78.234375 C 79.148438 -74.578125 84.457031 -69.523438 88.3125 -63.078125 C 92.164062 -56.628906 94.09375 -49.359375 94.09375 -41.265625 C 94.09375 -33.171875 92.164062 -25.898438 88.3125 -19.453125 C 84.457031 -13.003906 79.148438 -7.953125 72.390625 -4.296875 C 65.628906 -0.648438 58.046875 1.171875 49.640625 1.171875 Z M 49.640625 -12.265625 C 55.140625 -12.265625 60.085938 -13.5 64.484375 -15.96875 C 68.890625 -18.445312 72.347656 -21.90625 74.859375 -26.34375 C 77.378906 -30.789062 78.640625 -35.765625 78.640625 -41.265625 C 78.640625 -46.765625 77.378906 -51.734375 74.859375 -56.171875 C 72.347656 -60.617188 68.890625 -64.078125 64.484375 -66.546875 C 60.085938 -69.023438 55.140625 -70.265625 49.640625 -70.265625 C 44.140625 -70.265625 39.1875 -69.023438 34.78125 -66.546875 C 30.375 -64.078125 26.914062 -60.617188 24.40625 -56.171875 C 21.894531 -51.734375 20.640625 -46.765625 20.640625 -41.265625 C 20.640625 -35.765625 21.894531 -30.789062 24.40625 -26.34375 C 26.914062 -21.90625 30.375 -18.445312 34.78125 -15.96875 C 39.1875 -13.5 44.140625 -12.265625 49.640625 -12.265625 Z M 49.640625 -12.265625 "/></g></g></g><g fill="#ffffff" fill-opacity="1"><g transform="translate(273.801973, 115.386089)"><g><path d="M 86.890625 0 L 86.78125 -54.703125 L 59.65625 -9.4375 L 52.828125 -9.4375 L 25.703125 -54 L 25.703125 0 L 11.078125 0 L 11.078125 -82.53125 L 23.703125 -82.53125 L 56.484375 -27.828125 L 88.671875 -82.53125 L 101.28125 -82.53125 L 101.40625 0 Z M 86.890625 0 "/></g></g></g><g fill="#ffffff" fill-opacity="1"><g transform="translate(417.298669, 115.386089)"><g><path d="M 72.984375 -12.859375 L 72.984375 0 L 11.078125 0 L 11.078125 -82.53125 L 71.328125 -82.53125 L 71.328125 -69.6875 L 26.40625 -69.6875 L 26.40625 -48.21875 L 66.265625 -48.21875 L 66.265625 -35.609375 L 26.40625 -35.609375 L 26.40625 -12.859375 Z M 72.984375 -12.859375 "/></g></g></g><g fill="#ffffff" fill-opacity="1"><g transform="translate(526.247909, 115.386089)"><g><path d="M 63.078125 0 L 40.671875 -31.359375 L 18.515625 0 L 1.0625 0 L 31.71875 -42.09375 L 2.71875 -82.53125 L 20.046875 -82.53125 L 41.15625 -53.171875 L 62.015625 -82.53125 L 78.640625 -82.53125 L 49.75 -42.6875 L 80.765625 0 Z M 63.078125 0 "/></g></g></g></g></g></svg>